# xmcd
#
# Track frame offsets:
#	150
#	14317
#	31127
#	48014
#	62344
#	74668
#	90213
#	104482
#	122352
#	140685
#	162762
#	180691
#	197000
#	216767
#	233883
#	252004
#	274063
#	285080
#	303023
#
# Disc length: 4276 seconds
#
# Revision: 2
# Processed by: cddbd v1.5.1PL0 Copyright (c) Steve Scherf et al.
# Submitted via: dBpowerAMP V4.0
#
DISCID=f310b213
DTITLE=Guilherme e Santiago - ao vivo
DYEAR=1900
DGENRE=country
TTITLE0=Coração
TTITLE1=Pareço um menino
TTITLE2=Valeu esperar
TTITLE3=Do outro lado da cidade
TTITLE4=Crises de amor
TTITLE5=Blusa vermelha
TTITLE6=Enrosca, enrosca
TTITLE7=Love of my life
TTITLE8=More than words
TTITLE9=Mentiras de amor
TTITLE10=Essa paixão me machucou
TTITLE11=Abre coração
TTITLE12=Me esqueça
TTITLE13=Todo azul do mar
TTITLE14=Desesperadamente apaixonado
TTITLE15=Só falta você
TTITLE16=Só falta você (reprise)
TTITLE17=Paixão proibida
TTITLE18=Chovendo estrelas (bonus)
EXTD=
EXTT0=
EXTT1=
EXTT2=
EXTT3=
EXTT4=
EXTT5=
EXTT6=
EXTT7=
EXTT8=
EXTT9=
EXTT10=
EXTT11=
EXTT12=
EXTT13=
EXTT14=
EXTT15=
EXTT16=
EXTT17=
EXTT18=
PLAYORDER=
